<?xml version="1.0" encoding="iso-8859-1"?>
<!-- Uploaded to: SVG Repo, www.svgrepo.com, Generator: SVG Repo Mixer Tools -->
<!DOCTYPE svg PUBLIC "-//W3C//DTD SVG 1.1//EN" "http://www.w3.org/Graphics/SVG/1.1/DTD/svg11.dtd">
<svg fill="#000000" height="800px" width="800px" version="1.1" id="Capa_1" xmlns="http://www.w3.org/2000/svg" xmlns:xlink="http://www.w3.org/1999/xlink" 
	 viewBox="0 0 494.827 494.827" xml:space="preserve">
<g>
	<path d="M377.883,377.56l-74.724-56.734V194.158l72.124-147.002c3.852-7.85,4.416-16.729,1.588-25.002
		c-2.827-8.272-8.708-14.949-16.557-18.801C355.778,1.128,350.934,0,345.915,0c-12.593,0-23.861,7.019-29.406,18.32l-61.538,125.419
		l-91.005-98.775c-12.229-13.274-32.978-14.124-46.253-1.895c-6.431,5.924-10.17,13.998-10.528,22.734
		c-0.358,8.735,2.708,17.089,8.633,23.52l90.618,98.357c-0.475,2.726-0.736,5.523-0.736,8.383v128.152
		c0,8.239,2.063,16.004,5.688,22.815l-9.693,121.052c-1.083,13.619,9.121,25.582,22.747,26.667c0.662,0.053,1.319,0.078,1.972,0.078
		c12.785,0,23.665-9.867,24.696-22.828l0.117-1.479c4.871,1.607,10.067,2.489,15.469,2.489c27.287,0,49.486-22.199,49.486-49.486
		c0-27.286-22.199-49.484-49.486-49.484c-2.677,0-5.303,0.221-7.866,0.632l0.154-1.942c7.533-0.697,14.734-3.123,21.167-7.136
		l67.762,51.446c4.347,3.301,9.523,5.046,14.97,5.046c7.827,0,15.027-3.571,19.754-9.798
		C390.9,401.401,388.767,385.823,377.883,377.56z M324.139,22.065C328.245,13.697,336.589,8.5,345.915,8.5
		c3.709,0,7.294,0.836,10.655,2.484c2.054,1.008,3.915,2.289,5.569,3.779l-37.114,63.838c-1.18,2.029-0.491,4.63,1.538,5.81
		c2.03,1.183,4.631,0.491,5.81-1.538l35.302-60.721c0.431,0.89,0.828,1.801,1.153,2.751c2.093,6.125,1.675,12.697-1.176,18.509
		l-72.351,147.465c-4.106,8.368-12.451,13.566-21.779,13.566c-3.71,0-7.294-0.836-10.654-2.484
		c-11.995-5.886-16.966-20.435-11.081-32.432L324.139,22.065z M122.068,83.563c-4.386-4.761-6.656-10.944-6.391-17.412
		c0.205-5.009,1.917-9.72,4.888-13.629l41.153,45.562c0.839,0.929,1.995,1.401,3.155,1.401c1.015,0,2.035-0.362,2.847-1.096
		c1.742-1.574,1.878-4.261,0.305-6.003l-41.208-45.621c9.712-6.235,22.813-4.815,30.895,3.958l89.506,97.147
		c-17.363,2.585-31.754,14.366-38.069,30.213L122.068,83.563z M307.68,423.522c0,22.6-18.386,40.986-40.986,40.986
		c-22.599,0-40.984-18.387-40.984-40.986c0-22.599,18.385-40.984,40.984-40.984C289.294,382.538,307.68,400.924,307.68,423.522z
		 M217.21,423.522c0,18.7,10.428,35.008,25.772,43.422l-0.348,4.382c-0.712,8.951-8.58,15.646-17.522,14.95
		c-8.953-0.713-15.657-8.573-14.946-17.521l8.816-111.15c8.038,8.529,19.106,14.162,31.469,15.166l-0.328,4.13
		C230.965,383.73,217.21,402.047,217.21,423.522z M254.428,364.446c-22.183,0-40.23-18.047-40.23-40.23V196.064
		c0-20.286,15.097-37.105,34.644-39.832l-4.687,9.552c-7.949,16.205-1.235,35.856,14.968,43.807
		c4.535,2.225,9.379,3.354,14.398,3.354c7.942,0,15.353-2.796,21.137-7.691v109.119l-11.088-8.419
		c-4.349-3.303-9.527-5.049-14.974-5.049c-7.825,0-15.024,3.572-19.753,9.799c-8.264,10.886-6.133,26.465,4.751,34.728
		l19.199,14.576C267.14,362.921,260.889,364.446,254.428,364.446z M375.867,407.146c-3.107,4.092-7.839,6.439-12.985,6.439
		c-3.575,0-6.974-1.147-9.83-3.315l-94.317-71.607c-7.151-5.43-8.551-15.666-3.121-22.818c3.107-4.092,7.839-6.44,12.983-6.44
		c3.575,0,6.975,1.148,9.833,3.318l94.314,71.607C379.895,389.759,381.296,399.994,375.867,407.146z"/>
	<path d="M229.703,211.48c-2.347,0-4.25,1.902-4.25,4.25v67.498c0,2.348,1.903,4.25,4.25,4.25s4.25-1.902,4.25-4.25V215.73
		C233.953,213.382,232.051,211.48,229.703,211.48z"/>
</g>
</svg>