<?xml version="1.0" encoding="iso-8859-1"?>
<!-- Uploaded to: SVG Repo, www.svgrepo.com, Generator: SVG Repo Mixer Tools -->
<!DOCTYPE svg PUBLIC "-//W3C//DTD SVG 1.1//EN" "http://www.w3.org/Graphics/SVG/1.1/DTD/svg11.dtd">
<svg fill="#000000" height="800px" width="800px" version="1.1" id="Capa_1" xmlns="http://www.w3.org/2000/svg" xmlns:xlink="http://www.w3.org/1999/xlink" 
	 viewBox="0 0 492.38 492.38" xml:space="preserve">
<g>
	<path d="M238.867,102.744c28.325,0,51.369-23.045,51.369-51.372C290.236,23.045,267.192,0,238.867,0
		c-28.326,0-51.371,23.045-51.371,51.372C187.496,79.698,210.541,102.744,238.867,102.744z M238.867,8.5
		c23.638,0,42.869,19.232,42.869,42.872c0,23.64-19.232,42.872-42.869,42.872c-23.64,0-42.871-19.232-42.871-42.872
		C195.996,27.732,215.227,8.5,238.867,8.5z"/>
	<path d="M436.028,335.298c-7.488-14.092-25.046-19.467-39.139-11.979l-61.832,32.85l-30.148-56.74
		c1.627-3.896,2.536-7.992,2.536-12.245v-85.469l56.683,42.809c4.478,3.348,9.801,5.107,15.292,5.107
		c1.235,0,2.48-0.089,3.726-0.269c6.777-0.981,12.767-4.542,16.868-10.029c8.461-11.323,6.133-27.423-5.177-35.878L292.96,126.626
		c-17.387-13.69-37.193-21.99-54.093-21.99c-12.979,0-29.343,5.03-42.831,13.463L91.911,54.802
		c-12.095-7.324-27.892-3.447-35.218,8.643c-3.549,5.858-4.604,12.747-2.972,19.398c1.632,6.652,5.757,12.27,11.608,15.815
		l104.958,63.803v124.723c0,3.602,0.648,7.092,1.835,10.443l-51.665,154.751c-2.569,7.694-1.988,15.928,1.636,23.185
		c3.624,7.257,9.857,12.668,17.552,15.237c3.16,1.055,6.411,1.579,9.648,1.579c4.645,0,9.261-1.079,13.537-3.214
		c7.256-3.624,12.667-9.857,15.235-17.551l45.348-135.826c5.402,1.29,10.659,1.979,15.453,1.979c5.92,0,12.544-1.047,19.279-2.985
		l39.317,73.996c0.019,0.036,0.037,0.073,0.056,0.109c5.067,9.531,14.902,15.371,25.546,15.371c0.854,0,1.714-0.038,2.576-0.114
		c3.863-0.341,7.571-1.443,11.051-3.292c0.018-0.01,0.042-0.023,0.066-0.037l87.291-46.379
		C438.142,366.948,443.516,349.391,436.028,335.298z M393.205,234.243c-2.741,3.669-6.746,6.049-11.277,6.705
		c-4.53,0.657-9.044-0.492-12.693-3.221l-61.789-46.665V155.22c0-2.663-0.357-5.265-1.021-7.795l83.309,62.826
		C397.303,215.911,398.861,226.674,393.205,234.243z M61.976,80.818c-1.092-4.447-0.386-9.053,1.986-12.968
		c4.896-8.082,15.458-10.676,23.538-5.781l100.969,61.379c-9.915,7.943-17.081,17.951-18.065,29.136L69.74,91.391
		C65.825,89.02,63.067,85.265,61.976,80.818z M170.004,468.923c-1.85,5.54-5.746,10.029-10.971,12.638
		c-5.225,2.61-11.154,3.028-16.696,1.177c-0.982-0.328-1.916-0.742-2.827-1.194l35.699-98.784c0.798-2.207-0.345-4.643-2.553-5.441
		c-2.206-0.797-4.645,0.345-5.441,2.553l-34.735,96.118c-1.069-1.287-2.014-2.69-2.781-4.224
		c-2.609-5.226-3.028-11.155-1.178-16.696l49.14-147.19c8.431,11.494,22.965,20.527,37.585,25.535L170.004,468.923z
		 M180.537,295.818c-0.009-0.02-0.017-0.04-0.026-0.06c-1.108-2.778-1.724-5.646-1.724-8.574V155.22
		c0-22.825,36.902-42.085,60.079-42.085c12.351,0,28.597,5.471,41.082,14.035v114.424c0,2.347,1.902,4.25,4.25,4.25
		c2.348,0,4.25-1.903,4.25-4.25V134.113c6.358,6.248,10.496,13.475,10.496,21.107v131.963c0,3.515-0.881,6.945-2.447,10.234
		c-0.077,0.132-0.141,0.269-0.203,0.408c-8.846,17.864-37.971,31.442-57.429,31.442
		C218.685,329.268,188.106,314.662,180.537,295.818z M420.06,366.931l-87.354,46.413c-0.03,0.016-0.064,0.034-0.096,0.052
		c-2.421,1.276-5.018,2.044-7.719,2.283c-8.17,0.724-15.937-3.471-19.819-10.69c-0.017-0.032-0.033-0.064-0.05-0.096L266.3,332.014
		c13.193-5.162,25.885-13.515,33.6-23.899l29.646,55.794c1.1,2.072,3.671,2.861,5.747,1.759l65.585-34.844
		c9.953-5.29,22.356-1.493,27.645,8.461C433.81,349.24,430.014,361.641,420.06,366.931z"/>
</g>
</svg>