<?xml version="1.0" encoding="iso-8859-1"?>
<!-- Uploaded to: SVG Repo, www.svgrepo.com, Generator: SVG Repo Mixer Tools -->
<!DOCTYPE svg PUBLIC "-//W3C//DTD SVG 1.1//EN" "http://www.w3.org/Graphics/SVG/1.1/DTD/svg11.dtd">
<svg fill="#000000" height="800px" width="800px" version="1.1" id="Capa_1" xmlns="http://www.w3.org/2000/svg" xmlns:xlink="http://www.w3.org/1999/xlink" 
	 viewBox="0 0 487.574 487.574" xml:space="preserve">
<g>
	<path d="M304.412,112.332c5.308,1.763,10.81,2.657,16.355,2.657c22.379,0,42.156-14.279,49.213-35.53
		c9.015-27.141-5.73-56.556-32.869-65.57c-5.308-1.763-10.81-2.657-16.355-2.657c-22.378,0-42.156,14.278-49.215,35.528
		C262.526,73.903,277.272,103.319,304.412,112.332z M279.607,49.44c5.902-17.77,22.439-29.708,41.148-29.708
		c4.633,0,9.233,0.748,13.676,2.224c22.69,7.538,35.02,32.132,27.482,54.825c-5.9,17.77-22.436,29.709-41.146,29.709
		c-4.633,0-9.234-0.748-13.676-2.224C284.399,96.729,272.07,72.134,279.607,49.44z"/>
	<path d="M346.991,300.078l54.265-53.728c9.644-9.503,9.791-25.129,0.315-34.848l-79.655-80.944
		c-7.48-7.827-16.909-14-27.879-17.644c-7.025-2.333-14.307-3.516-21.643-3.516c-11.965,0-23.365,3.088-33.323,8.62L210.56,73.388
		l43.281-27.819c5.574-3.524,9.442-9.009,10.892-15.443c1.448-6.434,0.304-13.049-3.222-18.621
		c-3.524-5.576-9.01-9.444-15.445-10.893c-6.433-1.448-13.048-0.306-18.649,3.235L163.16,45.151
		c-0.188,0.121-0.365,0.256-0.528,0.402c-10.94,7.438-14.097,22.362-6.974,33.63l50.841,79.587l-27.385,82.446
		c-2.257,6.797-3.384,13.7-3.491,20.51L84.139,410.512c-10.054,16.354-4.93,37.841,11.422,47.897
		c5.673,3.488,11.962,5.15,18.18,5.15c11.704-0.001,23.149-5.892,29.718-16.571l74.312-120.858c1.581,0.66,3.186,1.284,4.838,1.833
		c7.025,2.334,14.307,3.518,21.644,3.518c2.771,0,5.512-0.166,8.211-0.489l55.227,134.933c3.523,8.609,10.188,15.33,18.765,18.926
		c4.333,1.816,8.894,2.725,13.455,2.725c4.466,0,8.933-0.871,13.19-2.613c8.609-3.522,15.331-10.186,18.927-18.763
		c3.596-8.576,3.636-18.04,0.112-26.647l-55.826-136.405c4.06,2.627,8.73,3.952,13.409,3.951
		C335.948,307.097,342.182,304.764,346.991,300.078z M333.311,212.353l15.784,16.238l-31.514,31.119L333.311,212.353z
		 M167.792,52.331c0.176-0.112,0.342-0.237,0.496-0.372l63.697-40.944c3.657-2.312,7.993-3.062,12.213-2.111
		c4.22,0.95,7.816,3.486,10.128,7.144c2.312,3.655,3.063,7.992,2.113,12.211c-0.95,4.219-3.486,7.816-7.168,10.144l-46.054,29.602
		c-0.611,0.216-1.178,0.573-1.65,1.066c-1.357,1.416-1.569,3.576-0.513,5.229l30.859,48.305
		c-9.163,6.698-16.668,15.672-21.636,26.293l-47.446-74.271C158.086,67.117,160.312,57.116,167.792,52.331z M136.219,442.535
		c-7.602,12.362-23.842,16.236-36.205,8.634c-2.85-1.753-5.243-3.969-7.154-6.487l55.148-86.447
		c1.262-1.979,0.682-4.606-1.297-5.869c-1.978-1.262-4.606-0.682-5.869,1.297l-52.386,82.117
		c-1.885-6.805-1.057-14.342,2.924-20.816l85.517-139.081c3.761,19.245,15.674,36.444,33.207,46.49L136.219,442.535z
		 M225.289,319.897c-31.462-10.45-48.557-44.544-38.109-76.001l28.171-84.813c8.182-24.634,31.106-41.185,57.042-41.185
		c6.424,0,12.804,1.037,18.963,3.082c31.457,10.449,48.55,44.545,38.102,76.005l-28.17,84.813
		c-8.183,24.633-31.104,41.183-57.035,41.183C237.829,322.981,231.448,321.943,225.289,319.897z M364.189,462.912
		c-0.362,0.864-0.773,1.699-1.219,2.511l-38.723-92.086c-0.91-2.164-3.401-3.179-5.565-2.271c-2.164,0.91-3.18,3.401-2.271,5.565
		l40.463,96.224c-2.072,1.743-4.414,3.183-6.993,4.238c-6.506,2.663-13.657,2.634-20.141-0.084
		c-6.482-2.717-11.52-7.798-14.183-14.306l-54.557-133.297c18.339-4.603,34.037-16.631,43.249-33.297l60.022,146.66
		C366.937,449.276,366.907,456.43,364.189,462.912z M318.133,293.724c-6.232-6.394-6.103-16.665,0.309-22.917l39.626-39.13
		c1.661-1.641,1.689-4.313,0.062-5.986l-21.8-22.428l1.195-3.598c4.473-13.466,4.523-27.355,0.947-40.085l57.026,57.87
		c6.207,6.366,6.113,16.614-0.217,22.852l-54.248,53.712C334.64,300.246,324.366,300.115,318.133,293.724z"/>
	<path d="M232.638,156.441c-2.232-0.727-4.628,0.5-5.352,2.733l-25.407,78.47c-0.723,2.233,0.501,4.63,2.734,5.353
		c0.435,0.142,0.876,0.208,1.31,0.208c1.793,0,3.46-1.144,4.042-2.941l25.407-78.47
		C236.096,159.561,234.872,157.164,232.638,156.441z"/>
</g>
</svg>